<?xml version="1.0" encoding="UTF-8"?>
<!-- Created with Inkscape (http://www.inkscape.org/) -->
<svg id="svg8" width="159.83mm" height="285.98mm" version="1.1" viewBox="0 0 159.83 285.98" xmlns="http://www.w3.org/2000/svg" xmlns:cc="http://creativecommons.org/ns#" xmlns:dc="http://purl.org/dc/elements/1.1/" xmlns:rdf="http://www.w3.org/1999/02/22-rdf-syntax-ns#">
 <metadata id="metadata5">
  <rdf:RDF>
   <cc:Work rdf:about="">
    <dc:format>image/svg+xml</dc:format>
    <dc:type rdf:resource="http://purl.org/dc/dcmitype/StillImage"/>
    <dc:title/>
   </cc:Work>
  </rdf:RDF>
 </metadata>
 <g id="layer1" transform="translate(-25.124 -5.6761)">
  <path id="rect817" transform="scale(.26458)" d="m170.54 21.453c-41.877 0-75.59 33.715-75.59 75.592v929.68c0 41.877 33.713 75.59 75.59 75.59h452.89c41.877 0 75.59-33.713 75.59-75.59v-929.68c0-41.877-33.713-75.592-75.59-75.592zm51.5 56.908h349.89c32.353 0 58.4 26.045 58.4 58.398v718.25c0 32.353-26.047 58.398-58.4 58.398h-349.89c-32.353 0-58.4-26.045-58.4-58.398v-718.25c0-32.353 26.047-58.398 58.4-58.398zm174.95 866.37a58.589 58.589 0 0 1 58.588 58.59 58.589 58.589 0 0 1-58.588 58.588 58.589 58.589 0 0 1-58.59-58.588 58.589 58.589 0 0 1 58.59-58.59z"/>
 </g>
</svg>
